<?xml version="1.0" encoding="iso-8859-1"?>
<!-- Generator: Adobe Illustrator 16.0.0, SVG Export Plug-In . SVG Version: 6.00 Build 0)  -->
<!DOCTYPE svg PUBLIC "-//W3C//DTD SVG 1.1//EN" "http://www.w3.org/Graphics/SVG/1.1/DTD/svg11.dtd">
<svg version="1.1" id="Capa_1" xmlns="http://www.w3.org/2000/svg" xmlns:xlink="http://www.w3.org/1999/xlink" x="0px" y="0px"
	 width="465.047px" height="465.047px" viewBox="0 0 465.047 465.047" style="enable-background:new 0 0 465.047 465.047;"
	 xml:space="preserve">
<g>
	<path d="M452.547,39.584H12.5c-6.903,0-12.5,5.597-12.5,12.5v360.879c0,6.902,5.597,12.5,12.5,12.5h440.047
		c6.902,0,12.5-5.598,12.5-12.5V52.084C465.047,45.18,459.449,39.584,452.547,39.584z M25,182.876h31.529v99.294H25V182.876z
		 M81.529,182.876h129.889v99.294H81.529V182.876z M167.578,157.876V64.584h129.891v93.292H167.578z M297.469,307.169v93.294
		H167.578v-93.294H297.469z M236.418,282.169v-99.294h147.1v99.294H236.418z M408.518,182.876h31.529v99.294h-31.529V182.876z
		 M440.047,157.876H322.469V64.584h117.578V157.876z M142.578,64.584v93.292H25V64.584H142.578z M25,307.169h117.578v93.294H25
		V307.169z M322.469,400.463v-93.294h117.578v93.294H322.469z"/>
</g>
<g>
</g>
<g>
</g>
<g>
</g>
<g>
</g>
<g>
</g>
<g>
</g>
<g>
</g>
<g>
</g>
<g>
</g>
<g>
</g>
<g>
</g>
<g>
</g>
<g>
</g>
<g>
</g>
<g>
</g>
</svg>
